<svg xmlns="http://www.w3.org/2000/svg" version="1.1" xmlnsXlink="http://www.w3.org/1999/xlink" xmlnsSvgjs="http://svgjs.dev/svgjs" width="2000" height="1500" viewBox="0 0 2000 1500"><rect width="2000" height="1500" fill="#ffffff"></rect><g transform="matrix(0.75,0,0,0.75,249.090909090909,473.70692920837894)"><svg viewBox="0 0 396 145" data-background-color="#ffffff" preserveAspectRatio="xMidYMid meet" height="732" width="2000" xmlns="http://www.w3.org/2000/svg" xmlnsXlink="http://www.w3.org/1999/xlink"><g id="tight-bounds" transform="matrix(1,0,0,1,0.2400000000000091,0.47357971727697645)"><svg viewBox="0 0 395.52 144.05284056544605" height="144.05284056544605" width="395.52"><g><svg viewBox="0 0 671.1252005008364 244.43136" height="144.05284056544605" width="395.52"><g transform="matrix(1,0,0,1,275.60520050083636,73.24952545618478)"><svg viewBox="0 0 395.52000000000004 97.93230908763043" height="97.93230908763043" width="395.52000000000004"><g id="textblocktransform"><svg viewBox="0 0 395.52000000000004 97.93230908763043" height="97.93230908763043" width="395.52000000000004" id="textblock"><g><svg viewBox="0 0 395.52000000000004 52.8200079649542" height="52.8200079649542" width="395.52000000000004"><g transform="matrix(1,0,0,1,0,0)"><svg width="395.52000000000004" viewBox="3.9 -37.7 376.61 50.300000000000004" height="52.8200079649542" data-palette-color="#636365"><path d="M3.9 0L3.9-36.75 13.25-36.75Q21.15-36.75 23.75-34.1 26.35-31.45 26.35-27.7L26.35-27.7Q26.35-25.2 25.25-22.98 24.15-20.75 21.75-19.65L21.75-19.65Q25.3-18.75 26.98-16.5 28.65-14.25 28.65-11.2L28.65-11.2Q28.65-8 27.65-5.6 26.65-3.2 23.5-1.6 20.35 0 14.4 0L14.4 0 3.9 0ZM9.4-21.15L14.15-21.15Q17.7-21.15 19.2-22.88 20.7-24.6 20.7-27.25L20.7-27.25Q20.7-32 13.9-32L13.9-32 9.4-32 9.4-21.15ZM9.4-4.7L15.15-4.7Q19.7-4.7 21.28-6.53 22.85-8.35 22.85-11.15L22.85-11.15Q22.85-13.8 21.05-15.25 19.25-16.7 15.6-16.7L15.6-16.7 9.4-16.7 9.4-4.7ZM42.8 0.5Q38.05 0.5 36.27-2.3 34.5-5.1 34.5-10.1L34.5-10.1 34.5-22.95 39.9-22.95 39.9-11.45Q39.9-8.6 40.22-7.03 40.55-5.45 41.52-4.7 42.5-3.95 44.45-3.95L44.45-3.95Q45.85-3.95 47.15-4.75 48.45-5.55 49.27-6.93 50.1-8.3 50.1-9.95L50.1-9.95 50.1-22.95 55.45-22.95 55.45 0 51.05 0 50.45-3.35Q49.2-1.4 47.32-0.45 45.45 0.5 42.8 0.5L42.8 0.5ZM64.3 12.6L69.25 0.7 59.74-22.95 65.84-22.95 70.75-8.35 71.84-4.8 72.94-8.35 78.09-22.95 84-22.95 69.89 12.6 64.3 12.6ZM99.99 0.75Q96.99 0.75 94.39-0.45 91.79-1.65 90.17-4.08 88.54-6.5 88.54-10.05L88.54-10.05Q88.54-13.15 90.32-15.53 92.09-17.9 95.49-20.3L95.49-20.3Q93.29-23.15 92.39-25 91.49-26.85 91.49-29.15L91.49-29.15Q91.49-31.7 92.69-33.65 93.89-35.6 95.94-36.65 97.99-37.7 100.54-37.7L100.54-37.7Q103.19-37.7 105.12-36.63 107.04-35.55 108.07-33.75 109.09-31.95 109.09-29.85L109.09-29.85Q109.09-26.85 107.64-24.4 106.19-21.95 102.49-18.85L102.49-18.85Q105.04-15.5 109.49-9.9L109.49-9.9Q112.44-12.5 114.19-15.4L114.19-15.4 118.34-12Q117.34-10.6 115.84-8.97 114.34-7.35 112.59-5.95L112.59-5.95Q115.09-2.75 117.39 0L117.39 0 111.39 0 109.34-2.5Q104.99 0.75 99.99 0.75L99.99 0.75ZM99.54-22.95Q101.99-24.9 102.99-26.35 103.99-27.8 103.99-29.7L103.99-29.7Q103.99-31.3 103.02-32.25 102.04-33.2 100.34-33.2L100.34-33.2Q98.79-33.2 97.62-32.15 96.44-31.1 96.44-29.15L96.44-29.15Q96.44-27.9 97.22-26.43 97.99-24.95 99.54-22.95L99.54-22.95ZM100.39-4.2Q101.64-4.2 103.02-4.63 104.39-5.05 106.09-6.55L106.09-6.55 101.29-12.55 98.54-16Q96.29-14.35 95.42-12.98 94.54-11.6 94.54-9.85L94.54-9.85Q94.54-7.35 96.04-5.78 97.54-4.2 100.39-4.2L100.39-4.2ZM133.74 0.5Q130.74 0.5 127.79-0.55 124.84-1.6 123.54-2.9L123.54-2.9 126.19-7.65Q127.24-6.7 129.47-5.68 131.69-4.65 133.74-4.65L133.74-4.65Q136.39-4.65 138.06-5.9 139.74-7.15 139.74-9.35L139.74-9.35Q139.74-11.05 138.84-12.3 137.94-13.55 136.64-14.38 135.34-15.2 132.94-16.4L132.94-16.4Q130.09-17.8 129.04-18.5L129.04-18.5Q124.19-21.75 124.19-27.5L124.19-27.5Q124.19-32.25 127.34-34.77 130.49-37.3 135.29-37.3L135.29-37.3Q140.44-37.3 144.04-34.35L144.04-34.35 141.39-29.8Q140.44-30.8 138.72-31.53 136.99-32.25 135.04-32.25L135.04-32.25Q132.54-32.25 131.12-31.13 129.69-30 129.69-27.8L129.69-27.8Q129.69-26.25 130.59-25.03 131.49-23.8 132.87-22.9 134.24-22 136.59-20.7L136.59-20.7Q138.84-19.45 140.04-18.73 141.24-18 142.29-17L142.29-17Q143.74-15.7 144.64-13.9 145.54-12.1 145.54-9.95L145.54-9.95Q145.54-6.6 144.01-4.25 142.49-1.9 139.81-0.7 137.14 0.5 133.74 0.5L133.74 0.5ZM162.04 0.5Q157.94 0.5 155.19-1.13 152.44-2.75 151.14-5.48 149.84-8.2 149.84-11.45L149.84-11.45Q149.84-15.1 151.36-17.85 152.89-20.6 155.59-22.08 158.29-23.55 161.69-23.55L161.69-23.55Q166.99-23.55 169.56-20.63 172.14-17.7 172.14-12.4L172.14-12.4Q172.14-11.05 171.99-9.6L171.99-9.6 155.49-9.6Q156.04-6.55 157.66-5.2 159.29-3.85 162.19-3.85L162.19-3.85Q164.59-3.85 166.14-4.25 167.69-4.65 168.99-5.35L168.99-5.35 170.64-1.5Q169.39-0.7 167.24-0.1 165.09 0.5 162.04 0.5L162.04 0.5ZM155.49-13.35L166.89-13.35Q166.94-16.45 165.54-17.73 164.14-19 161.54-19L161.54-19Q156.29-19 155.49-13.35L155.49-13.35ZM178.23 0L178.23-36.75 183.58-36.75 183.58 0 178.23 0ZM191.63 0L191.63-36.75 196.98-36.75 196.98 0 191.63 0ZM204.93 0L204.93-36.75 210.58-36.75 210.58-5 221.13-5 221.13 0 204.93 0ZM236.33 0.5Q233.23 0.5 230.6-0.98 227.98-2.45 226.4-5.18 224.83-7.9 224.83-11.55L224.83-11.55Q224.83-15.15 226.2-17.85 227.58-20.55 230.13-22.05 232.68-23.55 236.13-23.55L236.13-23.55Q238.13-23.55 239.88-22.85 241.63-22.15 242.83-21.13 244.03-20.1 244.43-19.1L244.43-19.1 244.53-22.95 249.68-22.95 249.68 0 244.58 0 244.48-4.05Q243.63-2.25 241.38-0.88 239.13 0.5 236.33 0.5L236.33 0.5ZM237.23-4Q240.08-4 242.03-5.98 243.98-7.95 243.98-11.15L243.98-11.15 243.98-11.5Q243.98-13.65 243.08-15.35 242.18-17.05 240.63-18 239.08-18.95 237.23-18.95L237.23-18.95Q234.03-18.95 232.28-16.88 230.53-14.8 230.53-11.5L230.53-11.5Q230.53-8.15 232.25-6.08 233.98-4 237.23-4L237.23-4ZM257.02 12.15L257.02-22.95 262.23-22.95 262.23-18.7Q264.98-23.55 270.82-23.55L270.82-23.55Q275.68-23.55 278.68-20.48 281.68-17.4 281.68-11.6L281.68-11.6Q281.68-8 280.2-5.25 278.73-2.5 276.2-1 273.68 0.5 270.57 0.5L270.57 0.5Q267.68 0.5 265.55-0.53 263.43-1.55 262.23-3.45L262.23-3.45 262.27 12.15 257.02 12.15ZM269.32-4.05Q272.57-4.05 274.32-6.13 276.07-8.2 276.07-11.45L276.07-11.45Q276.07-14.85 274.35-16.88 272.63-18.9 269.32-18.9L269.32-18.9Q267.52-18.9 265.95-18.03 264.38-17.15 263.45-15.53 262.52-13.9 262.52-11.75L262.52-11.75 262.52-11.4Q262.52-9.25 263.45-7.58 264.38-5.9 265.93-4.98 267.48-4.05 269.32-4.05L269.32-4.05ZM289.42 0L289.42-18.55 285.37-18.55 285.37-22.95 289.42-22.95 289.42-32.3 294.87-33.5 294.87-22.95 300.17-22.95 300.17-18.55 294.87-18.55 294.87 0 289.42 0ZM315.27 0.5Q311.72 0.5 308.97-1.1 306.22-2.7 304.72-5.45 303.22-8.2 303.22-11.55L303.22-11.55Q303.22-14.85 304.69-17.6 306.17-20.35 308.92-21.95 311.67-23.55 315.27-23.55L315.27-23.55Q318.87-23.55 321.59-21.95 324.32-20.35 325.79-17.6 327.27-14.85 327.27-11.55L327.27-11.55Q327.27-8.2 325.77-5.45 324.27-2.7 321.54-1.1 318.82 0.5 315.27 0.5L315.27 0.5ZM315.42-3.9Q318.32-3.9 320-6.05 321.67-8.2 321.67-11.45L321.67-11.45Q321.67-14.7 319.87-16.93 318.07-19.15 315.12-19.15L315.12-19.15Q312.27-19.15 310.54-16.95 308.82-14.75 308.82-11.45L308.82-11.45Q308.82-8.25 310.67-6.08 312.52-3.9 315.42-3.9L315.42-3.9ZM333.12 12.15L333.12-22.95 338.32-22.95 338.32-18.7Q341.07-23.55 346.92-23.55L346.92-23.55Q351.77-23.55 354.77-20.48 357.77-17.4 357.77-11.6L357.77-11.6Q357.77-8 356.29-5.25 354.82-2.5 352.29-1 349.77 0.5 346.67 0.5L346.67 0.5Q343.77 0.5 341.64-0.53 339.52-1.55 338.32-3.45L338.32-3.45 338.37 12.15 333.12 12.15ZM345.42-4.05Q348.67-4.05 350.42-6.13 352.17-8.2 352.17-11.45L352.17-11.45Q352.17-14.85 350.44-16.88 348.72-18.9 345.42-18.9L345.42-18.9Q343.62-18.9 342.04-18.03 340.47-17.15 339.54-15.53 338.62-13.9 338.62-11.75L338.62-11.75 338.62-11.4Q338.62-9.25 339.54-7.58 340.47-5.9 342.02-4.98 343.57-4.05 345.42-4.05L345.42-4.05ZM371.41 0.5Q369.01 0.5 366.44-0.13 363.86-0.75 362.76-1.6L362.76-1.6 364.56-5.85Q367.56-3.75 371.41-3.75L371.41-3.75Q375.26-3.75 375.26-6L375.26-6Q375.26-7 374.46-7.55 373.66-8.1 371.61-8.85L371.61-8.85 369.71-9.55Q366.71-10.75 364.96-12.43 363.21-14.1 363.21-16.85L363.21-16.85Q363.21-20 365.69-21.78 368.16-23.55 372.31-23.55L372.31-23.55Q374.36-23.55 376.34-23.1 378.31-22.65 379.36-21.95L379.36-21.95 377.41-17.65Q376.76-18.3 375.34-18.78 373.91-19.25 372.16-19.25L372.16-19.25Q368.61-19.25 368.61-17.1L368.61-17.1Q368.61-15.9 369.56-15.28 370.51-14.65 372.66-13.9L372.66-13.9Q372.86-13.85 374.21-13.35L374.21-13.35Q377.41-12.1 378.96-10.5 380.51-8.9 380.51-6.4L380.51-6.4Q380.51-3 377.94-1.25 375.36 0.5 371.41 0.5L371.41 0.5Z" opacity="1" transform="matrix(1,0,0,1,0,0)" fill="#000000" class="wordmark-text-0" data-fill-palette-color="primary" id="text-0"></path></svg></g></svg></g><g transform="matrix(1,0,0,1,0,65.28954416528873)"><svg viewBox="0 0 114.27212754794995 32.6427649223417" height="32.6427649223417" width="114.27212754794995"><g transform="matrix(1,0,0,1,0,0)"><svg width="114.27212754794995" viewBox="4.2 -35.6 127.24 36.35" height="32.6427649223417" data-palette-color="#89939e"><path d="M10.6 0L4.2 0 4.2-34.85 22.4-34.85 22.4-29.35 10.6-29.35 10.6-20.2 20.9-20.2 20.9-14.6 10.6-14.6 10.6 0ZM33.7-28.95L26.7-28.95 26.7-35.6 33.7-35.6 33.7-28.95ZM33.45 0L26.95 0 26.95-24.9 33.45-24.9 33.45 0ZM47.3 0L40.9 0 40.9-24.9 46.7-24.9 46.82-21.63Q47.8-23.13 49.55-24.31 51.3-25.5 54.15-25.5L54.15-25.5Q57.95-25.5 59.8-23.1 61.65-20.7 61.65-16.45L61.65-16.45 61.65 0 55.25 0 55.25-15.9Q55.25-17.98 54.37-19.26 53.5-20.55 51.7-20.55L51.7-20.55Q49.95-20.55 48.62-19.26 47.3-17.98 47.3-15.9L47.3-15.9 47.3 0ZM78.94 0.65L78.94 0.65Q74.74 0.65 72.17-1.11 69.59-2.88 68.42-5.79 67.24-8.7 67.24-12.15L67.24-12.15Q67.24-15.78 68.58-18.81 69.92-21.85 72.51-23.68 75.09-25.5 78.84-25.5L78.84-25.5Q84.44-25.5 86.67-22.26 88.89-19.03 88.89-13.1L88.89-13.1Q88.89-12.58 88.87-11.78 88.84-10.98 88.79-10.4L88.79-10.4 73.79-10.4Q73.94-7.45 75.46-5.78 76.97-4.1 79.99-4.1L79.99-4.1Q81.54-4.1 83.32-4.79 85.09-5.48 85.94-6.45L85.94-6.45 87.94-1.7Q86.94-1.03 84.78-0.19 82.62 0.65 78.94 0.65ZM73.74-14.3L73.74-14.3 82.54-14.3Q82.54-16.93 82.08-18.31 81.62-19.7 80.82-20.23 80.02-20.75 78.99-20.75L78.99-20.75Q76.44-20.75 75.17-18.86 73.89-16.98 73.74-14.3ZM101.59 0.45L101.59 0.45Q98.87 0.45 97.13-0.06 95.39-0.58 94.43-1.24 93.47-1.9 93.09-2.35L93.09-2.35 94.94-7.1Q96.04-6.2 97.75-5.33 99.47-4.45 101.74-4.45L101.74-4.45Q103.52-4.45 104.23-5.18 104.94-5.9 104.94-6.75L104.94-6.75Q104.94-7.93 103.32-8.88 101.69-9.83 99.54-10.75L99.54-10.75Q98.27-11.3 96.84-12.15 95.42-13 94.4-14.4 93.39-15.8 93.39-18L93.39-18Q93.39-21.38 95.85-23.39 98.32-25.4 102.84-25.4L102.84-25.4Q105.74-25.4 107.75-24.54 109.77-23.68 110.44-23L110.44-23 108.74-18.5Q107.77-19.25 106.27-19.93 104.77-20.6 103.04-20.6L103.04-20.6Q101.14-20.6 100.39-20.1 99.64-19.6 99.64-18.5L99.64-18.5Q99.64-17.28 100.98-16.49 102.32-15.7 104.19-14.95L104.19-14.95Q107.32-13.73 109.23-11.94 111.14-10.15 111.14-7.4L111.14-7.4Q111.14-5.35 110.19-3.56 109.24-1.78 107.14-0.66 105.04 0.45 101.59 0.45ZM124.84 0.75L124.84 0.75Q120.61 0.75 119.13-1.45 117.64-3.65 117.64-8.1L117.64-8.1 117.64-19.65 114.39-19.65 114.39-24.9 117.89-24.9 118.24-30.15 123.69-32.5 123.69-24.9 129.84-24.9 129.84-19.65 123.69-19.65 123.69-8.25Q123.69-6.08 124.3-5.24 124.91-4.4 125.99-4.4L125.99-4.4Q127.09-4.4 128.31-4.98 129.54-5.55 130.24-6.15L130.24-6.15 131.44-1.1Q130.66-0.55 129.43-0.14 128.19 0.28 126.93 0.51 125.66 0.75 124.84 0.75Z" opacity="1" transform="matrix(1,0,0,1,0,0)" fill="#000000" class="slogan-text-1" data-fill-palette-color="secondary" id="text-1"></path></svg></g></svg></g></svg></g></svg></g><g><svg viewBox="0 0 244.43136 244.43136" height="244.43136" width="244.43136"><g><svg viewBox="0 0 244.43136 244.43136" height="244.43136" width="244.43136"><g transform="matrix(1,0,0,1,64.60265593644993,74.64779706653317)"><svg viewBox="0 0 115.22604812710016 95.13576586693365" height="95.13576586693365" width="115.22604812710016"><g><svg xmlnsDc="http://purl.org/dc/elements/1.1/" xmlnsCc="http://creativecommons.org/ns#" xmlnsRdf="http://www.w3.org/1999/02/22-rdf-syntax-ns#" xmlnsSvg="http://www.w3.org/2000/svg" xmlns="http://www.w3.org/2000/svg" xmlnsSodipodi="http://sodipodi.sourceforge.net/DTD/sodipodi-0.dtd" xmlnsInkscape="http://www.inkscape.org/namespaces/inkscape" preserveAspectRatio="xMidYMid" viewBox="0 0 62.906 51.938" version="1.1" x="0" y="0" height="95.13576586693365" width="115.22604812710016" class="icon-dxe-0" data-fill-palette-color="accent" id="dxe-0"><path d="M4.5 0C2.026 0 0 2.042 0 4.563 0 6.11 0.78 7.553 2.063 8.406 2.75 8.864 3.665 8.66 4.124 7.97A1.477 1.477 0 0 0 3.719 5.906 1.62 1.62 0 0 1 3 4.563C3 3.68 3.666 3 4.5 3 5.181 3 5.78 3.402 6 3.625L15.281 41.719 15.594 43.406C15.729 44.112 16.344 44.625 17.063 44.625H20.03V44.656C20.031 48.66 23.277 51.938 27.281 51.938S34.563 48.66 34.563 44.656V44.625H43.125V44.656C43.125 48.66 46.371 51.938 50.375 51.938S57.656 48.66 57.656 44.656V44.625H60.97C61.798 44.625 62.906 43.954 62.906 43.125V33.125C62.906 32.296 61.798 31.625 60.97 31.625H54L62.594 13.781A1.54 1.54 0 0 0 62.5 12.312 1.5 1.5 0 0 0 61.219 11.626H11.063L8.937 2.938C8.714 1.428 6.597 0 4.5 0M12.156 14.625H58.844L50.687 31.625H16.313zM29.47 23.625A1.5 1.5 0 1 0 29.469 26.625H38.469A1.5 1.5 0 1 0 38.469 23.625zM16.969 34.625H59.906V41.625H57.47C57.296 41.625 57.154 41.665 57 41.719 55.866 39.183 53.328 37.406 50.375 37.406 47.447 37.406 44.929 39.154 43.781 41.656A1.6 1.6 0 0 0 43.47 41.625H33.875A7.27 7.27 0 0 0 27.281 37.406C24.353 37.406 21.835 39.154 20.688 41.656 20.618 41.646 20.542 41.625 20.468 41.625H18.345L18.156 40.781zM27.28 40.406C29.631 40.406 31.563 42.306 31.563 44.656S29.63 48.938 27.28 48.938 23.031 47.006 23.031 44.656 24.931 40.406 27.281 40.406M50.375 40.406C52.724 40.406 54.656 42.306 54.656 44.656S52.724 48.938 50.375 48.938C48.025 48.938 46.125 47.006 46.125 44.656S48.025 40.406 50.375 40.406" fill="#000000" fill-rule="evenodd" data-fill-palette-color="accent"></path></svg></g></svg></g><g id="text-0"><path d="M25.777 98.435l-23.173-7.948 2.023-5.899c1.139-3.321 2.452-5.335 3.939-6.041 1.489-0.712 3.022-0.798 4.6-0.257v0c1.05 0.36 1.963 0.933 2.739 1.718 0.778 0.779 1.226 1.754 1.343 2.925v0c0.888-1.366 1.926-2.237 3.115-2.612 1.184-0.383 2.419-0.355 3.704 0.087v0c1.343 0.46 2.448 1.074 3.315 1.841 0.868 0.767 1.409 1.927 1.623 3.479 0.221 1.555-0.098 3.582-0.956 6.083v0zM13.623 90.394l1.028-2.997c0.513-1.495 0.515-2.682 0.005-3.561-0.509-0.879-1.321-1.509-2.434-1.891v0c-1.998-0.685-3.488 0.404-4.47 3.267v0l-0.972 2.835zM23.997 93.952l1.244-3.627c0.657-1.915 0.717-3.335 0.181-4.258-0.543-0.926-1.403-1.591-2.58-1.994v0c-1.113-0.382-2.105-0.299-2.976 0.249-0.871 0.548-1.569 1.588-2.095 3.121v0l-1.342 3.913z" fill="#000000" data-fill-palette-color="accent"></path><path d="M36.621 74.231c-1.07 1.821-2.34 2.756-3.812 2.805-1.475 0.054-3.17-0.481-5.083-1.605v0l-7.396-4.343 1.824-3.106 6.613 3.883c1.096 0.644 1.983 1.079 2.661 1.306 0.675 0.232 1.265 0.244 1.771 0.033 0.508-0.201 0.982-0.675 1.421-1.423v0c0.313-0.534 0.463-1.14 0.449-1.82-0.014-0.679-0.192-1.334-0.533-1.963-0.338-0.62-0.823-1.115-1.455-1.486v0l-7.483-4.394 1.809-3.08 13.199 7.751-1.487 2.532-2.127-0.781c0.463 0.912 0.666 1.834 0.609 2.768-0.057 0.934-0.384 1.908-0.98 2.923z" fill="#000000" data-fill-palette-color="accent"></path><path d="M51.197 67.367l-3.702-7.761-15.967-5.825 2.718-3.025 9.428 4.074 2.256 1.037-1.279-2.125-4.951-9.059 2.63-2.927 11.362 22.834z" fill="#000000" data-fill-palette-color="accent"></path><path d="M63.141 45.403c-1.067 0.809-2.221 1.346-3.462 1.612-1.243 0.276-2.479 0.204-3.708-0.214-1.228-0.428-2.317-1.269-3.269-2.523v0c-0.833-1.099-1.255-2.307-1.266-3.624-0.006-1.321 0.271-2.86 0.829-4.618v0c-1.545-0.424-2.727-0.84-3.544-1.25-0.812-0.414-1.527-1.028-2.145-1.843v0c-0.687-0.906-1.081-1.865-1.182-2.878-0.097-1.007 0.077-1.975 0.521-2.903 0.443-0.919 1.118-1.721 2.024-2.408v0c0.938-0.711 1.892-1.135 2.861-1.27 0.969-0.136 1.878-0.023 2.726 0.339 0.848 0.361 1.555 0.915 2.12 1.659v0c0.805 1.061 1.279 2.221 1.423 3.48 0.144 1.258-0.023 2.93-0.503 5.015v0c1.803 0.507 4.244 1.155 7.324 1.943v0c0.346-1.714 0.44-3.322 0.281-4.823v0l3.575 0.139c0.024 0.767-0.011 1.638-0.107 2.614-0.096 0.976-0.265 1.949-0.51 2.918v0c1.742 0.46 3.39 0.869 4.945 1.227v0l-3.184 2.415-2.099-0.498c-0.664 2.319-1.881 4.149-3.65 5.491zM53.346 32.987c0.348-1.345 0.504-2.408 0.468-3.191-0.036-0.783-0.311-1.512-0.823-2.187v0c-0.427-0.563-0.942-0.881-1.547-0.954-0.599-0.078-1.199 0.111-1.799 0.566v0c-0.552 0.419-0.892 0.972-1.02 1.66-0.138 0.687 0.056 1.376 0.58 2.068v0c0.333 0.44 0.836 0.818 1.507 1.136 0.668 0.313 1.546 0.613 2.635 0.902zM61.351 42.607c0.445-0.337 0.852-0.764 1.22-1.28 0.374-0.52 0.663-1.275 0.866-2.265v0l-4.971-1.244-2.846-0.73c-0.356 1.19-0.504 2.146-0.444 2.87 0.055 0.718 0.318 1.388 0.789 2.01v0c0.671 0.884 1.485 1.402 2.444 1.553 0.953 0.155 1.934-0.15 2.942-0.914z" fill="#000000" data-fill-palette-color="accent"></path><path d="M82.665 33.593c-1.214 0.547-2.515 0.878-3.902 0.993-1.389 0.109-2.467 0.019-3.231-0.271v0l0.309-3.614c0.603 0.193 1.45 0.295 2.539 0.306 1.089 0.011 2.048-0.17 2.876-0.542v0c1.073-0.483 1.836-1.133 2.288-1.949 0.454-0.809 0.48-1.662 0.077-2.557v0c-0.309-0.687-0.763-1.202-1.36-1.546-0.588-0.34-1.222-0.56-1.902-0.66-0.677-0.094-1.613-0.166-2.809-0.218v0c-1.407-0.045-2.386-0.113-2.936-0.205v0c-2.563-0.432-4.369-1.814-5.418-4.144v0c-0.867-1.926-0.893-3.688-0.079-5.287 0.815-1.599 2.194-2.836 4.139-3.711v0c2.092-0.942 4.137-1.143 6.135-0.605v0l-0.364 3.495c-0.569-0.231-1.269-0.336-2.1-0.316-0.832 0.02-1.643 0.209-2.435 0.565v0c-1.012 0.456-1.704 1.04-2.076 1.754-0.376 0.722-0.363 1.528 0.037 2.417v0c0.282 0.626 0.718 1.104 1.31 1.435 0.586 0.334 1.24 0.559 1.964 0.676 0.721 0.111 1.676 0.216 2.864 0.315v0c1.143 0.098 2.023 0.185 2.64 0.261 0.623 0.073 1.238 0.217 1.843 0.432v0c0.826 0.262 1.585 0.677 2.276 1.244 0.694 0.558 1.238 1.276 1.633 2.153v0c0.61 1.356 0.82 2.648 0.628 3.877-0.191 1.23-0.72 2.334-1.584 3.314-0.861 0.971-1.982 1.767-3.362 2.388z" fill="#000000" data-fill-palette-color="accent"></path><path d="M101.306 27.476c-1.77 0.434-3.336 0.447-4.696 0.04-1.362-0.414-2.468-1.14-3.318-2.179-0.85-1.038-1.447-2.26-1.792-3.664v0c-0.386-1.574-0.395-3.037-0.027-4.388 0.37-1.344 1.058-2.479 2.064-3.404 1.014-0.92 2.253-1.56 3.716-1.919v0c2.293-0.562 4.15-0.349 5.569 0.639 1.42 0.989 2.411 2.629 2.974 4.923v0c0.143 0.581 0.258 1.194 0.346 1.837v0l-10.682 2.619c0.557 1.255 1.257 2.088 2.098 2.498 0.85 0.415 1.899 0.47 3.147 0.164v0c1.039-0.255 1.87-0.552 2.493-0.892 0.631-0.335 1.19-0.725 1.676-1.17v0l1.681 2.237c-0.457 0.479-1.119 0.96-1.984 1.443-0.864 0.489-1.952 0.894-3.265 1.216zM94.864 19.549l7.38-1.809c-0.309-1.344-0.831-2.217-1.567-2.618-0.742-0.4-1.675-0.462-2.799-0.187v0c-2.26 0.554-3.265 2.092-3.014 4.614z" fill="#000000" data-fill-palette-color="accent"></path><path d="M113.07 25.026l-2.657-24.354 3.551-0.387 2.657 24.353z" fill="#000000" data-fill-palette-color="accent"></path><path d="M123.478 24.519l-0.146-24.498 3.572-0.021 0.146 24.498z" fill="#000000" data-fill-palette-color="accent"></path><path d="M133.561 25.134l3.174-24.292 3.731 0.487-2.742 20.991 6.974 0.911-0.432 3.301z" fill="#000000" data-fill-palette-color="accent"></path><path d="M154.695 30.199c-1.313-0.42-2.425-1.118-3.335-2.094-0.908-0.982-1.513-2.158-1.817-3.526-0.298-1.366-0.199-2.822 0.294-4.365v0c0.488-1.525 1.206-2.768 2.156-3.728 0.948-0.954 2.064-1.575 3.35-1.863 1.279-0.29 2.649-0.202 4.11 0.265v0c0.846 0.27 1.593 0.672 2.242 1.205 0.643 0.53 1.15 1.095 1.524 1.694 0.367 0.598 0.569 1.135 0.607 1.614v0l0.841-2.432 3.268 1.045-4.663 14.579-3.238-1.036 0.766-2.594c-0.603 0.648-1.474 1.11-2.616 1.388-1.141 0.278-2.304 0.227-3.489-0.152zM156.184 27.529c1.205 0.385 2.354 0.29 3.449-0.284 1.093-0.569 1.856-1.532 2.291-2.891v0l0.071-0.221c0.291-0.91 0.359-1.785 0.204-2.625-0.146-0.845-0.486-1.571-1.019-2.18-0.524-0.613-1.177-1.044-1.96-1.294v0c-1.358-0.434-2.546-0.33-3.563 0.312-1.024 0.64-1.759 1.659-2.206 3.055v0c-0.453 1.416-0.455 2.683-0.008 3.801 0.45 1.111 1.363 1.887 2.741 2.327z" fill="#000000" data-fill-palette-color="accent"></path><path d="M164.195 42.246l11.588-20.34 3.016 1.719-1.404 2.463c2.129-1.264 4.322-1.254 6.578 0.032v0c1.876 1.069 3.055 2.526 3.536 4.372 0.481 1.846 0.084 3.888-1.191 6.126v0c-0.793 1.391-1.775 2.457-2.948 3.198-1.179 0.737-2.421 1.117-3.727 1.14-1.306 0.023-2.555-0.306-3.747-0.985v0c-1.122-0.639-1.979-1.391-2.571-2.255-0.601-0.861-0.923-1.791-0.965-2.791v0l-5.123 9.054zM176.672 36.917c1.257 0.716 2.449 0.865 3.577 0.447 1.134-0.414 2.059-1.25 2.775-2.506v0c0.746-1.309 1.009-2.545 0.789-3.708-0.22-1.163-0.967-2.107-2.241-2.833v0c-0.696-0.396-1.444-0.598-2.245-0.606-0.801-0.007-1.558 0.2-2.271 0.623-0.716 0.428-1.311 1.057-1.783 1.887v0l-0.115 0.201c-0.473 0.83-0.714 1.668-0.724 2.514-0.013 0.852 0.177 1.626 0.57 2.322 0.399 0.7 0.955 1.252 1.668 1.659z" fill="#000000" data-fill-palette-color="accent"></path><path d="M187.114 47.326l7.922-9.501-2.077-1.732 1.88-2.255 2.077 1.732 3.987-4.781 3.307 1.706-4.504 5.401 2.712 2.262-1.88 2.255-2.713-2.262-7.922 9.501z" fill="#000000" data-fill-palette-color="accent"></path><path d="M199.82 60.448c-1.044-1.187-1.703-2.475-1.976-3.865-0.274-1.381-0.173-2.728 0.302-4.042 0.479-1.309 1.277-2.454 2.393-3.436v0c1.101-0.969 2.329-1.61 3.684-1.923 1.35-0.319 2.695-0.252 4.033 0.201 1.344 0.448 2.545 1.273 3.602 2.476v0c1.057 1.202 1.718 2.493 1.983 3.873 0.269 1.376 0.16 2.713-0.329 4.011-0.484 1.304-1.276 2.44-2.377 3.408v0c-1.116 0.982-2.356 1.625-3.719 1.928-1.359 0.309-2.704 0.242-4.034-0.201-1.335-0.438-2.522-1.248-3.562-2.43zM202.091 58.585c0.849 0.965 1.878 1.412 3.089 1.341 1.21-0.07 2.358-0.583 3.444-1.538v0c1.081-0.951 1.728-2.053 1.942-3.307 0.214-1.254-0.113-2.374-0.979-3.359v0c-0.84-0.955-1.879-1.398-3.118-1.329-1.239 0.068-2.409 0.587-3.51 1.556v0c-1.071 0.942-1.697 2.043-1.877 3.304-0.18 1.252 0.156 2.362 1.009 3.332z" fill="#000000" data-fill-palette-color="accent"></path><path d="M200.749 74.294l20.258-11.73 1.739 3.003-2.453 1.421c2.476-0.019 4.365 1.095 5.666 3.342v0c1.082 1.869 1.366 3.721 0.851 5.558-0.514 1.837-1.886 3.401-4.115 4.692v0c-1.385 0.802-2.771 1.228-4.158 1.276-1.39 0.043-2.654-0.255-3.794-0.893-1.139-0.638-2.053-1.551-2.74-2.739v0c-0.647-1.118-1.009-2.199-1.085-3.243-0.085-1.047 0.106-2.012 0.573-2.896v0l-8.987 5.239zM214.212 75.977c0.725 1.252 1.68 1.981 2.864 2.189 1.189 0.213 2.409-0.042 3.661-0.767v0c1.304-0.755 2.154-1.69 2.549-2.805 0.396-1.115 0.226-2.307-0.509-3.577v0c-0.401-0.693-0.946-1.244-1.633-1.654-0.688-0.41-1.447-0.612-2.275-0.606-0.834 0.009-1.665 0.253-2.492 0.731v0l-0.201 0.117c-0.827 0.479-1.457 1.081-1.892 1.806-0.441 0.729-0.666 1.494-0.677 2.293-0.008 0.805 0.194 1.563 0.605 2.273z" fill="#000000" data-fill-palette-color="accent"></path><path d="M218.925 93.998c-0.355-1.009-0.593-2.098-0.713-3.268-0.113-1.172-0.074-2.053 0.118-2.641v0l3.073 0.19c-0.439 1.567-0.374 3.159 0.196 4.777v0c0.568 1.612 1.321 2.252 2.26 1.921v0c0.425-0.15 0.693-0.433 0.803-0.849 0.11-0.417 0.173-1.109 0.188-2.078v0l0.015-1.353c0.059-1.433 0.311-2.641 0.756-3.625 0.447-0.978 1.245-1.669 2.393-2.074v0c1.326-0.467 2.542-0.314 3.649 0.459 1.109 0.779 1.969 2.038 2.582 3.776v0c0.304 0.863 0.506 1.74 0.606 2.632 0.109 0.896 0.091 1.615-0.053 2.158v0l-3.135-0.275c0.177-0.369 0.262-0.887 0.254-1.556-0.013-0.666-0.15-1.366-0.409-2.102v0c-0.523-1.485-1.235-2.068-2.135-1.751v0c-0.501 0.177-0.816 0.508-0.944 0.996-0.119 0.491-0.179 1.243-0.179 2.256v0c0.01 0.089 0.011 0.456 0.003 1.101v0c-0.049 1.522-0.295 2.725-0.74 3.609-0.442 0.89-1.187 1.52-2.234 1.888v0c-1.428 0.503-2.696 0.344-3.805-0.478-1.116-0.819-1.966-2.057-2.549-3.713z" fill="#000000" data-fill-palette-color="accent"></path><path d="M11.303 160.158l23.174-7.948 2.023 5.898c1.139 3.321 1.339 5.717 0.598 7.187-0.738 1.476-1.896 2.485-3.474 3.026v0c-1.05 0.36-2.122 0.468-3.217 0.325-1.092-0.137-2.044-0.632-2.856-1.485v0c0.137 1.624-0.148 2.949-0.856 3.974-0.699 1.029-1.692 1.764-2.977 2.205v0c-1.343 0.46-2.592 0.654-3.747 0.581-1.156-0.073-2.295-0.657-3.417-1.751-1.128-1.092-2.121-2.888-2.979-5.389v0zM25.834 159.046l1.028 2.997c0.513 1.495 1.24 2.433 2.182 2.814 0.941 0.381 1.969 0.381 3.082-0.001v0c1.998-0.685 2.506-2.46 1.524-5.323v0l-0.972-2.834zM15.46 162.604l1.244 3.627c0.657 1.915 1.481 3.073 2.471 3.472 0.997 0.398 2.084 0.395 3.261-0.009v0c1.113-0.382 1.846-1.056 2.197-2.023 0.351-0.967 0.264-2.217-0.262-3.75v0l-1.343-3.913z" fill="#000000" data-fill-palette-color="accent"></path><path d="M22.853 187.483c-1.07-1.821-1.267-3.386-0.593-4.695 0.671-1.315 1.964-2.534 3.878-3.658v0l7.395-4.343 1.824 3.106-6.612 3.883c-1.096 0.644-1.909 1.207-2.437 1.688-0.532 0.476-0.829 0.986-0.892 1.531-0.072 0.542 0.112 1.186 0.551 1.934v0c0.313 0.534 0.77 0.96 1.371 1.278 0.6 0.318 1.258 0.482 1.973 0.491 0.706 0.007 1.375-0.176 2.008-0.547v0l7.482-4.394 1.809 3.08-13.199 7.751-1.487-2.532 1.719-1.477c-1.022-0.04-1.927-0.312-2.715-0.816-0.788-0.505-1.48-1.264-2.075-2.28z" fill="#000000" data-fill-palette-color="accent"></path><path d="M27.309 207.72l8.112-2.852 7.498-15.253 2.717 3.025-5.059 8.939-1.271 2.133 2.249-1.045 9.536-3.954 2.63 2.927-23.917 8.858z" fill="#000000" data-fill-palette-color="accent"></path><path d="M53.286 221.222c-1.067-0.809-1.896-1.775-2.487-2.899-0.601-1.123-0.865-2.332-0.794-3.629 0.081-1.298 0.597-2.574 1.548-3.828v0c0.833-1.099 1.882-1.831 3.148-2.197 1.271-0.362 2.827-0.511 4.67-0.447v0c-0.009-1.602 0.074-2.852 0.248-3.751 0.18-0.894 0.578-1.748 1.196-2.562v0c0.687-0.906 1.504-1.544 2.452-1.914 0.944-0.365 1.922-0.459 2.935-0.281 1.004 0.179 1.959 0.612 2.865 1.298v0c0.938 0.711 1.603 1.515 1.995 2.412 0.392 0.897 0.529 1.802 0.41 2.717-0.119 0.914-0.461 1.744-1.027 2.489v0c-0.805 1.061-1.794 1.831-2.966 2.309-1.173 0.478-2.828 0.768-4.965 0.869v0c-0.002 1.873 0.033 4.398 0.105 7.576v0c1.744-0.129 3.317-0.473 4.719-1.03v0l0.832 3.48c-0.732 0.23-1.58 0.431-2.546 0.601-0.966 0.171-1.948 0.27-2.948 0.298v0c0.027 1.802 0.078 3.499 0.152 5.092v0l-3.183-2.414-0.088-2.156c-2.412-0.014-4.503-0.692-6.271-2.033zM62.598 208.441c1.389-0.028 2.455-0.165 3.199-0.411 0.744-0.246 1.372-0.707 1.884-1.383v0c0.427-0.563 0.594-1.145 0.502-1.747-0.087-0.598-0.431-1.124-1.031-1.579v0c-0.552-0.419-1.177-0.597-1.874-0.535-0.699 0.053-1.31 0.425-1.834 1.117v0c-0.333 0.44-0.562 1.026-0.688 1.758-0.121 0.727-0.174 1.654-0.158 2.78zM55.495 218.743c0.445 0.337 0.965 0.614 1.561 0.83 0.602 0.22 1.406 0.294 2.415 0.223v0l-0.143-5.123-0.065-2.936c-1.242-0.021-2.203 0.094-2.883 0.345-0.677 0.247-1.251 0.681-1.723 1.303v0c-0.671 0.884-0.949 1.808-0.836 2.772 0.108 0.96 0.666 1.822 1.674 2.586z" fill="#000000" data-fill-palette-color="accent"></path><path d="M76.109 234.595c-1.214-0.547-2.324-1.301-3.329-2.263-1.003-0.968-1.649-1.834-1.94-2.599v0l2.911-2.164c0.255 0.58 0.74 1.281 1.454 2.104 0.714 0.823 1.485 1.421 2.313 1.794v0c1.073 0.483 2.065 0.624 2.975 0.421 0.907-0.196 1.563-0.742 1.966-1.638v0c0.309-0.687 0.395-1.368 0.255-2.043-0.135-0.666-0.391-1.286-0.766-1.861-0.378-0.569-0.945-1.318-1.699-2.247v0c-0.899-1.083-1.497-1.862-1.793-2.335v0c-1.375-2.205-1.538-4.473-0.489-6.804v0c0.867-1.926 2.169-3.114 3.906-3.563 1.737-0.45 3.578-0.237 5.522 0.638v0c2.092 0.942 3.598 2.339 4.52 4.192v0l-2.857 2.045c-0.204-0.579-0.59-1.173-1.156-1.782-0.567-0.609-1.246-1.092-2.037-1.449v0c-1.012-0.456-1.909-0.586-2.69-0.392-0.79 0.198-1.385 0.741-1.785 1.631v0c-0.282 0.626-0.35 1.27-0.206 1.932 0.138 0.66 0.404 1.299 0.796 1.919 0.395 0.613 0.949 1.398 1.663 2.353v0c0.685 0.921 1.203 1.637 1.555 2.15 0.358 0.515 0.658 1.071 0.898 1.666v0c0.351 0.793 0.544 1.635 0.577 2.528 0.042 0.889-0.134 1.773-0.529 2.65v0c-0.61 1.356-1.439 2.369-2.487 3.041-1.048 0.672-2.225 1.009-3.531 1.01-1.298-0.001-2.637-0.313-4.017-0.934z" fill="#000000" data-fill-palette-color="accent"></path><path d="M97.504 241.66c-1.77-0.434-3.165-1.146-4.182-2.137-1.016-0.997-1.661-2.153-1.935-3.466-0.274-1.314-0.238-2.673 0.107-4.077v0c0.386-1.574 1.055-2.875 2.006-3.903 0.95-1.021 2.085-1.709 3.404-2.064 1.325-0.347 2.719-0.341 4.183 0.018v0c2.293 0.562 3.84 1.61 4.642 3.143 0.801 1.533 0.921 3.446 0.358 5.74v0c-0.143 0.581-0.323 1.178-0.542 1.789v0l-10.682-2.619c-0.087 1.371 0.148 2.433 0.705 3.185 0.561 0.761 1.466 1.294 2.714 1.601v0c1.039 0.255 1.913 0.376 2.622 0.362 0.715-0.005 1.39-0.092 2.028-0.261v0l0.455 2.761c-0.627 0.213-1.436 0.334-2.426 0.361-0.992 0.034-2.144-0.11-3.457-0.433zM95.459 231.653l7.379 1.81c0.348-1.334 0.289-2.35-0.178-3.046-0.473-0.698-1.271-1.184-2.395-1.46v0c-2.26-0.554-3.863 0.345-4.806 2.696z" fill="#000000" data-fill-palette-color="accent"></path><path d="M111.41 243.813l2.657-24.353 3.551 0.387-2.657 24.354z" fill="#000000" data-fill-palette-color="accent"></path><path d="M123.387 244.41l0.145-24.498 3.572 0.021-0.145 24.498z" fill="#000000" data-fill-palette-color="accent"></path><path d="M135.543 243.667l-3.174-24.292 3.732-0.487 2.743 20.99 6.973-0.911 0.431 3.301z" fill="#000000" data-fill-palette-color="accent"></path><path d="M159.558 238.637c-1.313 0.42-2.624 0.497-3.931 0.23-1.309-0.273-2.485-0.879-3.526-1.817-1.035-0.94-1.8-2.182-2.293-3.727v0c-0.488-1.525-0.623-2.954-0.407-4.287 0.218-1.327 0.767-2.481 1.647-3.461 0.874-0.979 2.041-1.701 3.502-2.169v0c0.846-0.27 1.687-0.377 2.524-0.32 0.831 0.059 1.573 0.225 2.225 0.496 0.645 0.274 1.122 0.595 1.43 0.963v0l-0.726-2.47 3.268-1.045 4.662 14.58-3.239 1.035-0.881-2.557c-0.115 0.877-0.557 1.76-1.325 2.648-0.768 0.888-1.745 1.522-2.93 1.901zM159.222 235.599c1.205-0.385 2.086-1.13 2.644-2.233 0.56-1.097 0.623-2.325 0.189-3.684v0l-0.071-0.221c-0.291-0.91-0.743-1.662-1.357-2.256-0.61-0.603-1.308-0.998-2.095-1.184-0.783-0.195-1.565-0.167-2.346 0.083v0c-1.358 0.434-2.265 1.208-2.722 2.321-0.463 1.115-0.47 2.372-0.024 3.768v0c0.453 1.416 1.186 2.449 2.199 3.1 1.011 0.644 2.205 0.746 3.583 0.306z" fill="#000000" data-fill-palette-color="accent"></path><path d="M179.791 238.757l-11.588-20.339 3.016-1.718 1.403 2.463c-0.002-2.476 1.125-4.357 3.382-5.642v0c1.876-1.069 3.731-1.34 5.564-0.813 1.833 0.527 3.387 1.91 4.662 4.148v0c0.793 1.391 1.208 2.78 1.248 4.167 0.033 1.39-0.273 2.652-0.92 3.787-0.646 1.135-1.566 2.042-2.758 2.721v0c-1.122 0.639-2.206 0.993-3.25 1.062-1.047 0.078-2.011-0.12-2.893-0.593v0l5.176 9.024zM181.569 225.307c1.257-0.716 1.993-1.666 2.209-2.849 0.222-1.187-0.025-2.409-0.741-3.666v0c-0.746-1.309-1.675-2.166-2.788-2.569-1.113-0.404-2.306-0.242-3.58 0.484v0c-0.696 0.396-1.251 0.937-1.665 1.622-0.415 0.685-0.622 1.442-0.623 2.271 0.003 0.834 0.241 1.666 0.714 2.496v0l0.115 0.202c0.473 0.83 1.071 1.465 1.794 1.904 0.726 0.446 1.489 0.677 2.288 0.694 0.805 0.014 1.564-0.183 2.277-0.589z" fill="#000000" data-fill-palette-color="accent"></path><path d="M196.913 218.054l-7.922-9.5-2.077 1.731-1.881-2.255 2.077-1.732-3.987-4.781 2.273-2.946 4.504 5.401 2.712-2.261 1.881 2.255-2.713 2.261 7.923 9.501z" fill="#000000" data-fill-palette-color="accent"></path><path d="M211.809 203.726c-1.044 1.187-2.238 2.005-3.582 2.453-1.334 0.448-2.683 0.52-4.047 0.216-1.359-0.309-2.597-0.954-3.713-1.936v0c-1.101-0.969-1.893-2.105-2.377-3.408-0.488-1.299-0.593-2.641-0.315-4.026 0.273-1.39 0.939-2.686 1.996-3.888v0c1.057-1.202 2.254-2.022 3.588-2.461 1.33-0.443 2.67-0.505 4.021-0.186 1.355 0.314 2.582 0.955 3.683 1.924v0c1.116 0.982 1.912 2.13 2.387 3.443 0.479 1.309 0.584 2.651 0.315 4.026-0.264 1.38-0.916 2.661-1.956 3.843zM209.671 201.711c0.849-0.965 1.161-2.043 0.937-3.234-0.224-1.192-0.879-2.265-1.965-3.22v0c-1.081-0.951-2.257-1.452-3.528-1.505-1.271-0.052-2.34 0.414-3.206 1.4v0c-0.84 0.955-1.147 2.042-0.921 3.262 0.226 1.22 0.889 2.314 1.99 3.282v0c1.071 0.942 2.243 1.422 3.517 1.441 1.264 0.019 2.323-0.456 3.176-1.426z" fill="#000000" data-fill-palette-color="accent"></path><path d="M228.014 195.122l-20.257-11.73 1.739-3.004 2.454 1.421c-1.249-2.138-1.223-4.331 0.077-6.577v0c1.082-1.869 2.548-3.037 4.397-3.506 1.849-0.468 3.888-0.057 6.118 1.234v0c1.385 0.802 2.444 1.792 3.177 2.971 0.729 1.184 1.1 2.429 1.113 3.734 0.013 1.306-0.324 2.553-1.011 3.74v0c-0.647 1.118-1.405 1.969-2.272 2.555-0.865 0.595-1.798 0.91-2.798 0.946v0l9.018 5.186zM222.773 182.608c0.725-1.252 0.882-2.443 0.472-3.574-0.406-1.137-1.236-2.068-2.487-2.793v0c-1.304-0.755-2.538-1.027-3.702-0.814-1.164 0.212-2.114 0.952-2.849 2.221v0c-0.401 0.693-0.608 1.44-0.621 2.241-0.013 0.801 0.189 1.559 0.607 2.275 0.423 0.719 1.048 1.318 1.874 1.796v0l0.201 0.117c0.827 0.479 1.663 0.726 2.509 0.741 0.852 0.019 1.627-0.165 2.326-0.554 0.702-0.394 1.259-0.946 1.67-1.656z" fill="#000000" data-fill-palette-color="accent"></path><path d="M233.985 164.935c-0.355 1.009-0.853 2.007-1.493 2.993-0.646 0.985-1.229 1.646-1.747 1.985v0l-2.276-2.075c1.324-0.946 2.272-2.227 2.842-3.845v0c0.568-1.612 0.382-2.583-0.557-2.914v0c-0.425-0.15-0.811-0.097-1.158 0.16-0.347 0.256-0.83 0.756-1.449 1.5v0l-0.86 1.045c-0.944 1.08-1.897 1.863-2.861 2.352-0.961 0.482-2.016 0.52-3.164 0.115v0c-1.326-0.467-2.178-1.348-2.556-2.644-0.376-1.302-0.258-2.822 0.355-4.56v0c0.304-0.863 0.696-1.673 1.177-2.431 0.477-0.766 0.941-1.316 1.394-1.649v0l2.27 2.18c-0.369 0.177-0.76 0.527-1.173 1.052-0.407 0.527-0.74 1.159-0.999 1.895v0c-0.523 1.485-0.334 2.386 0.567 2.703v0c0.501 0.177 0.954 0.115 1.359-0.185 0.401-0.308 0.919-0.857 1.554-1.646v0c0.048-0.076 0.277-0.362 0.687-0.859v0c0.992-1.155 1.938-1.938 2.839-2.349 0.903-0.417 1.877-0.441 2.924-0.071v0c1.428 0.503 2.316 1.422 2.666 2.757 0.356 1.338 0.242 2.835-0.341 4.491z" fill="#000000" data-fill-palette-color="accent"></path><path d="M4.585 126.814c0-5.303 4.299-9.602 9.602-9.602 5.303 0 9.602 4.299 9.603 9.602 0 5.303-4.299 9.602-9.603 9.603-5.303 0-9.602-4.299-9.602-9.603z" fill="#000000" data-fill-palette-color="accent"></path><path d="M222.623 126.814c0-5.303 4.299-9.602 9.602-9.602 5.303 0 9.602 4.299 9.602 9.602 0 5.303-4.299 9.602-9.602 9.603-5.303 0-9.602-4.299-9.602-9.603z" fill="#000000" data-fill-palette-color="accent"></path></g><g id="text-1"></g></svg></g></svg></g></svg></g><defs></defs></svg><rect width="395.52" height="144.05284056544605" fill="none" stroke="none" visibility="hidden"></rect></g></svg></g></svg>